<svg width="23" height="19" viewBox="0 0 23 19" fill="none" xmlns="http://www.w3.org/2000/svg">
<path d="M14.9385 4.09091C14.9385 6.02621 13.3917 7.58182 11.5 7.58182C9.60827 7.58182 8.06155 6.02621 8.06155 4.09091C8.06155 2.15561 9.60827 0.6 11.5 0.6C13.3917 0.6 14.9385 2.15561 14.9385 4.09091Z" stroke="#403F3E" stroke-width="1.2"/>
<path d="M1.67445 15.2212L1.59991 15.5283C1.29436 16.7872 2.24801 18 3.54349 18H19.4565C20.752 18 21.7056 16.7872 21.4001 15.5283L21.3256 15.2212C20.6725 12.5307 18.2634 10.6364 15.4948 10.6364H7.50517C4.73658 10.6364 2.32746 12.5307 1.67445 15.2212Z" stroke="#403F3E" stroke-width="1.2"/>
</svg>
